<svg width="22" height="32" viewBox="0 0 22 32" fill="none" xmlns="http://www.w3.org/2000/svg">
  <g clip-path="url(#clip0)">
  <path d="M5.33553 31.9999C8.27953 31.9999 10.6689 29.6106 10.6689 26.6666V21.3333H5.33553C2.39153 21.3333 0.00219727 23.7226 0.00219727 26.6666C0.00219727 29.6106 2.39153 31.9999 5.33553 31.9999Z" fill="#0ACF83"/>
  <path d="M0.00219727 16C0.00219727 13.056 2.39153 10.6667 5.33553 10.6667H10.6689V21.3332H5.33553C2.39153 21.3332 0.00219727 18.9439 0.00219727 16Z" fill="#A259FF"/>
  <path d="M0.00170898 5.33338C0.00170898 2.38938 2.39104 4.57764e-05 5.33504 4.57764e-05H10.6684V10.6667H5.33504C2.39104 10.6667 0.00170898 8.27738 0.00170898 5.33338Z" fill="#F24E1E"/>
  <path d="M10.6687 6.10352e-05H16.0021C18.9461 6.10352e-05 21.3354 2.38939 21.3354 5.33339C21.3354 8.27739 18.9461 10.6667 16.0021 10.6667H10.6687V6.10352e-05Z" fill="#FF7262"/>
  <path d="M21.3354 16C21.3354 18.9439 18.9461 21.3332 16.0021 21.3332C13.0581 21.3332 10.6687 18.9439 10.6687 16C10.6687 13.056 13.0581 10.6667 16.0021 10.6667C18.9461 10.6667 21.3354 13.056 21.3354 16Z" fill="#1ABCFE"/>
  </g>
  <defs>
  <clipPath id="clip0">
  <rect width="21.3376" height="32" fill="white"/>
  </clipPath>
  </defs>
  </svg>
