<svg width="12" height="14" viewBox="0 0 12 14" fill="none" xmlns="http://www.w3.org/2000/svg">
  <path d="M4.29985 2.8C3.91326 2.8 3.59985 3.1134 3.59985 3.5C3.59985 3.88659 3.91326 4.2 4.29985 4.2H8.49985C8.88646 4.2 9.19985 3.88659 9.19985 3.5C9.19985 3.1134 8.88646 2.8 8.49985 2.8H4.29985Z" fill="#0ACF83"/>
  <path d="M4.29985 5.60001C3.91326 5.60001 3.59985 5.9134 3.59985 6.30001C3.59985 6.68662 3.91326 7.00001 4.29985 7.00001H8.49985C8.88646 7.00001 9.19985 6.68662 9.19985 6.30001C9.19985 5.9134 8.88646 5.60001 8.49985 5.60001H4.29985Z" fill="#0ACF83"/>
  <path d="M7.1002 10.5C7.1002 10.8866 6.78681 11.2 6.4002 11.2C6.01359 11.2 5.7002 10.8866 5.7002 10.5C5.7002 10.1134 6.01359 9.8 6.4002 9.8C6.78681 9.8 7.1002 10.1134 7.1002 10.5Z" fill="#0ACF83"/>
  <path fill-rule="evenodd" clip-rule="evenodd" d="M0.800049 2.1C0.800049 0.940205 1.74025 0 2.90005 0H9.90005C11.0599 0 12 0.940205 12 2.1V11.9C12 13.0598 11.0599 14 9.90005 14H2.90005C1.74025 14 0.800049 13.0598 0.800049 11.9V2.1ZM2.90005 1.4H9.90005C10.2867 1.4 10.6 1.7134 10.6 2.1V11.9C10.6 12.2866 10.2867 12.6 9.90005 12.6H2.90005C2.51345 12.6 2.20005 12.2866 2.20005 11.9V2.1C2.20005 1.7134 2.51345 1.4 2.90005 1.4Z" fill="#0ACF83"/>
  </svg>
